<svg xmlns="http://www.w3.org/2000/svg" viewBox="0 0 100 100">
  <defs>
    <linearGradient id="sky" x1="0" y1="0" x2="0" y2="1">
      <stop offset="0" stop-color="#aee3ff"/><stop offset="1" stop-color="#6ebefa"/>
    </linearGradient>
  </defs>
  <rect width="100" height="100" rx="22" fill="url(#sky)"/>
  <!-- 耳朵 -->
  <polygon points="45,36 38.8,9.5 52,33" fill="#ffd21a"/>
  <polygon points="38.8,9.5 43.2,12 45.2,21" fill="#2b2b2b"/>
  <polygon points="55,36 61.2,9.5 48,33" fill="#ffd21a"/>
  <polygon points="61.2,9.5 56.8,12 54.8,21" fill="#2b2b2b"/>
  <!-- 臉 -->
  <ellipse cx="50" cy="55" rx="26.8" ry="25" fill="#ffd21a"/>
  <!-- 眼睛 -->
  <circle cx="40.6" cy="51.6" r="4.6" fill="#2b2b2b"/>
  <circle cx="59.4" cy="51.6" r="4.6" fill="#2b2b2b"/>
  <circle cx="42.1" cy="50.3" r="1.7" fill="#fff"/>
  <circle cx="60.9" cy="50.3" r="1.7" fill="#fff"/>
  <!-- 臉頰 -->
  <ellipse cx="36.7" cy="62.6" rx="5.1" ry="4.6" fill="#ff5a5a"/>
  <ellipse cx="63.3" cy="62.6" rx="5.1" ry="4.6" fill="#ff5a5a"/>
  <!-- 鼻+嘴 -->
  <circle cx="50" cy="57" r="1.6" fill="#2b2b2b"/>
  <path d="M45.2 60 Q48.4 64 50 60.5 Q51.6 64 54.8 60" stroke="#7a4a00" stroke-width="1.3" fill="none" stroke-linecap="round"/>
</svg>
